TITLE ""
FILE "Step1_Track45.mp3" MP3
  TRACK 01 AUDIO
    TITLE "Step1_Track45_01"
    INDEX 01 00:00:00
  TRACK 02 AUDIO
    TITLE "Step1_Track45_02"
    INDEX 01 00:00:24
  TRACK 03 AUDIO
    TITLE "Step1_Track45_03"
    INDEX 01 00:02:11
  TRACK 04 AUDIO
    TITLE "Step1_Track45_04"
    INDEX 01 00:02:66
  TRACK 05 AUDIO
    TITLE "Step1_Track45_05"
    INDEX 01 00:03:63
  TRACK 06 AUDIO
    TITLE "Step1_Track45_06"
    INDEX 01 00:04:16
  TRACK 07 AUDIO
    TITLE "Step1_Track45_07"
    INDEX 01 00:06:32
  TRACK 08 AUDIO
    TITLE "Step1_Track45_08"
    INDEX 01 00:06:58
  TRACK 09 AUDIO
    TITLE "Step1_Track45_09"
    INDEX 01 00:07:59
  TRACK 10 AUDIO
    TITLE "Step1_Track45_10"
    INDEX 01 00:07:67
  TRACK 11 AUDIO
    TITLE "Step1_Track45_11"
    INDEX 01 00:10:05
  TRACK 12 AUDIO
    TITLE "Step1_Track45_12"
    INDEX 01 00:10:28
  TRACK 13 AUDIO
    TITLE "Step1_Track45_13"
    INDEX 01 00:11:32
  TRACK 14 AUDIO
    TITLE "Step1_Track45_14"
    INDEX 01 00:11:41
  TRACK 15 AUDIO
    TITLE "Step1_Track45_15"
    INDEX 01 00:14:71
  TRACK 16 AUDIO
    TITLE "Step1_Track45_16"
    INDEX 01 00:15:29
  TRACK 17 AUDIO
    TITLE "Step1_Track45_17"
    INDEX 01 00:16:31
  TRACK 18 AUDIO
    TITLE "Step1_Track45_18"
    INDEX 01 00:16:37
  TRACK 19 AUDIO
    TITLE "Step1_Track45_19"
    INDEX 01 00:19:63
  TRACK 20 AUDIO
    TITLE "Step1_Track45_20"
    INDEX 01 00:20:13
  TRACK 21 AUDIO
    TITLE "Step1_Track45_21"
    INDEX 01 00:21:20
  TRACK 22 AUDIO
    TITLE "Step1_Track45_22"
    INDEX 01 00:21:38
  TRACK 23 AUDIO
    TITLE "Step1_Track45_23"
    INDEX 01 00:23:52
  TRACK 24 AUDIO
    TITLE "Step1_Track45_24"
    INDEX 01 00:23:66
  TRACK 25 AUDIO
    TITLE "Step1_Track45_25"
    INDEX 01 00:24:72
  TRACK 26 AUDIO
    TITLE "Step1_Track45_26"
    INDEX 01 00:25:10
  TRACK 27 AUDIO
    TITLE "Step1_Track45_27"
    INDEX 01 00:27:25
  TRACK 28 AUDIO
    TITLE "Step1_Track45_28"
    INDEX 01 00:27:40
  TRACK 29 AUDIO
    TITLE "Step1_Track45_29"
    INDEX 01 00:28:48
  TRACK 30 AUDIO
    TITLE "Step1_Track45_30"
    INDEX 01 00:28:58
  TRACK 31 AUDIO
    TITLE "Step1_Track45_31"
    INDEX 01 00:31:70
  TRACK 32 AUDIO
    TITLE "Step1_Track45_32"
    INDEX 01 00:32:18
  TRACK 33 AUDIO
    TITLE "Step1_Track45_33"
    INDEX 01 00:32:73
  TRACK 34 AUDIO
    TITLE "Step1_Track45_34"
    INDEX 01 00:33:16
  TRACK 35 AUDIO
    TITLE "Step1_Track45_35"
    INDEX 01 00:37:00
  TRACK 36 AUDIO
    TITLE "Step1_Track45_36"
    INDEX 01 00:37:08
  TRACK 37 AUDIO
    TITLE "Step1_Track45_37"
    INDEX 01 00:38:13
  TRACK 38 AUDIO
    TITLE "Step1_Track45_38"
    INDEX 01 00:38:19
  TRACK 39 AUDIO
    TITLE "Step1_Track45_39"
    INDEX 01 00:41:15
  TRACK 40 AUDIO
    TITLE "Step1_Track45_40"
    INDEX 01 00:41:35
  TRACK 41 AUDIO
    TITLE "Step1_Track45_41"
    INDEX 01 00:42:32
  TRACK 42 AUDIO
    TITLE "Step1_Track45_42"
    INDEX 01 00:42:34
  TRACK 43 AUDIO
    TITLE "Step1_Track45_43"
    INDEX 01 00:45:40
